HIERARCHY
ROOT Hips
{
  OFFSET 0.000000 0.000000 0.000000
  CHANNELS 6 Xposition Yposition Zposition Zrotation Xrotation Yrotation
  JOINT Spine
  {
    OFFSET 0.000000 10.000000 0.000000
    CHANNELS 3 Zrotation Xrotation Yrotation
    JOINT Chest
    {
      OFFSET 0.000000 15.000000 0.000000
      CHANNELS 3 Zrotation Xrotation Yrotation
      JOINT Neck
      {
        OFFSET 0.000000 15.000000 0.000000
        CHANNELS 3 Zrotation Xrotation Yrotation
        JOINT Head
        {
          OFFSET 0.000000 10.000000 0.000000
          CHANNELS 3 Zrotation Xrotation Yrotation
          End Site
          {
            OFFSET 0.0 0.0 0.0
          }
        }
      }
      JOINT LeftShoulder
      {
        OFFSET 20.000000 15.000000 0.000000
        CHANNELS 3 Zrotation Xrotation Yrotation
        JOINT LeftArm
        {
          OFFSET 15.000000 0.000000 0.000000
          CHANNELS 3 Zrotation Xrotation Yrotation
          JOINT LeftForeArm
          {
            OFFSET 25.000000 0.000000 0.000000
            CHANNELS 3 Zrotation Xrotation Yrotation
            JOINT LeftHand
            {
              OFFSET 20.000000 0.000000 0.000000
              CHANNELS 3 Zrotation Xrotation Yrotation
              End Site
              {
                OFFSET 0.0 0.0 0.0
              }
            }
          }
        }
      }
      JOINT RightShoulder
      {
        OFFSET -20.000000 15.000000 0.000000
        CHANNELS 3 Zrotation Xrotation Yrotation
        JOINT RightArm
        {
          OFFSET -15.000000 0.000000 0.000000
          CHANNELS 3 Zrotation Xrotation Yrotation
          JOINT RightForeArm
          {
            OFFSET -25.000000 0.000000 0.000000
            CHANNELS 3 Zrotation Xrotation Yrotation
            JOINT RightHand
            {
              OFFSET -20.000000 0.000000 0.000000
              CHANNELS 3 Zrotation Xrotation Yrotation
              End Site
              {
                OFFSET 0.0 0.0 0.0
              }
            }
          }
        }
      }
    }
  }
  JOINT LeftUpLeg
  {
    OFFSET 10.000000 -10.000000 0.000000
    CHANNELS 3 Zrotation Xrotation Yrotation
    JOINT LeftLeg
    {
      OFFSET 0.000000 -45.000000 0.000000
      CHANNELS 3 Zrotation Xrotation Yrotation
      JOINT LeftFoot
      {
        OFFSET 0.000000 -45.000000 0.000000
        CHANNELS 3 Zrotation Xrotation Yrotation
        JOINT LeftToeBase
        {
          OFFSET 0.000000 0.000000 10.000000
          CHANNELS 3 Zrotation Xrotation Yrotation
          End Site
          {
            OFFSET 0.0 0.0 0.0
          }
        }
      }
    }
  }
  JOINT RightUpLeg
  {
    OFFSET -10.000000 -10.000000 0.000000
    CHANNELS 3 Zrotation Xrotation Yrotation
    JOINT RightLeg
    {
      OFFSET 0.000000 -45.000000 0.000000
      CHANNELS 3 Zrotation Xrotation Yrotation
      JOINT RightFoot
      {
        OFFSET 0.000000 -45.000000 0.000000
        CHANNELS 3 Zrotation Xrotation Yrotation
        JOINT RightToeBase
        {
          OFFSET 0.000000 0.000000 10.000000
          CHANNELS 3 Zrotation Xrotation Yrotation
          End Site
          {
            OFFSET 0.0 0.0 0.0
          }
        }
      }
    }
  }
}
MOTION
Frames: 14
Frame Time: 0.033333
15.398780 -0.034876 16.371000 0.000000 0.000000 0.000000 0.000000 0.000000 0.000000 0.000000 0.000000 0.000000 0.000000 0.000000 0.000000 0.000000 0.000000 0.000000 -101.214866 -1.227594 1.008103 -155.930376 -147.182188 71.805145 17.376630 -0.259084 -1.695316 17.376630 -0.259084 -1.695316 93.612507 -15.184891 -14.266313 -169.928674 -126.972921 20.033520 -167.781471 138.058932 -31.205731 -167.781471 138.058932 -31.205731 14.240550 -30.392170 3.886572 -18.667841 -41.540823 -7.134292 67.581462 100.139856 58.509978 67.581462 100.139856 58.509978 -23.254918 -8.024476 -1.653786 -26.375133 -38.524318 -9.362286 -57.863957 116.426053 -37.817852 -57.863957 116.426053 -37.817852
15.097300 -0.198327 17.572776 0.000000 0.000000 0.000000 0.000000 0.000000 0.000000 0.000000 0.000000 0.000000 0.000000 0.000000 0.000000 0.000000 0.000000 0.000000 -100.021844 -0.222414 0.186555 -95.759115 -86.473777 80.743246 18.294511 -0.110591 -0.686805 18.294511 -0.110591 -0.686805 89.835413 -19.398155 -19.452894 -169.948330 -80.162372 8.464983 -168.097540 138.398618 -30.690015 -168.097540 138.398618 -30.690015 10.940257 -26.943598 2.628360 -18.432602 -39.332137 -6.637491 61.375596 90.733498 60.733713 61.375596 90.733498 60.733713 -23.087366 -6.908242 -1.412624 -28.047271 -35.878246 -9.245834 -61.440385 121.419032 -36.870423 -61.440385 121.419032 -36.870423
14.847953 -0.219888 18.321759 0.000000 0.000000 0.000000 0.000000 0.000000 0.000000 0.000000 0.000000 0.000000 0.000000 0.000000 0.000000 0.000000 0.000000 0.000000 -98.501960 22.258887 -19.240849 -72.406812 2.182476 -2.981292 4.634764 -0.653817 -16.050757 4.634764 -0.653817 -16.050757 89.635918 -30.352214 -30.536697 -169.095300 116.586401 -17.566104 -159.571035 123.646740 -37.183936 -159.571035 123.646740 -37.183936 6.663783 -29.889453 1.780531 -20.374475 -42.330563 -7.959903 53.895651 91.035733 53.063261 53.895651 91.035733 53.063261 -24.649412 -5.970233 -1.305543 -28.080958 -37.885361 -9.811257 -58.287733 121.944056 -34.387953 -58.287733 121.944056 -34.387953
14.991733 -0.572111 17.876917 0.000000 0.000000 0.000000 0.000000 0.000000 0.000000 0.000000 0.000000 0.000000 0.000000 0.000000 0.000000 0.000000 0.000000 0.000000 -104.257175 12.727159 -9.913720 -59.120834 -6.451838 11.350350 -8.254356 1.997146 -27.160040 -8.254356 1.997146 -27.160040 94.395829 -31.885582 -29.636064 -161.344743 55.139401 -9.803160 -162.042420 124.122732 -33.181119 -162.042420 124.122732 -33.181119 6.214441 -32.981490 1.841357 -20.406564 -44.404730 -8.402828 57.141147 88.834642 58.125501 57.141147 88.834642 58.125501 -26.533594 -5.230236 -1.233985 -28.102782 -38.161864 -9.896006 -56.461131 122.814591 -32.622021 -56.461131 122.814591 -32.622021
16.222671 -1.489156 16.865151 0.000000 0.000000 0.000000 0.000000 0.000000 0.000000 0.000000 0.000000 0.000000 0.000000 0.000000 0.000000 0.000000 0.000000 0.000000 -108.321255 -2.729611 1.971689 -47.631975 -16.774423 36.942422 9.567730 -0.616620 -7.357959 9.567730 -0.616620 -7.357959 86.381261 -31.608952 -33.558499 -166.744543 86.913168 -12.565597 -165.453876 137.364746 -36.220060 -165.453876 137.364746 -36.220060 8.782181 -34.687944 2.747596 -17.096913 -47.700367 -7.603940 66.594725 96.511531 60.749800 66.594725 96.511531 60.749800 -27.870843 -0.314220 -0.077968 -25.491225 -39.683097 -9.332397 -51.138800 117.992356 -32.083395 -51.138800 117.992356 -32.083395
16.514012 -1.715780 15.802871 0.000000 0.000000 0.000000 0.000000 0.000000 0.000000 0.000000 0.000000 0.000000 0.000000 0.000000 0.000000 0.000000 0.000000 0.000000 -102.646649 -3.954697 3.166119 -24.621615 -8.925681 39.358335 68.089484 1.474992 2.182943 68.089484 1.474992 2.182943 74.978198 -31.054493 -39.823463 -168.277054 119.539621 -19.983068 -169.661573 146.222172 -33.184312 -169.661573 146.222172 -33.184312 12.031612 -38.483408 4.213274 -13.699330 -52.721791 -6.813244 67.246444 94.615288 63.055252 67.246444 94.615288 63.055252 -28.386611 2.045855 0.517478 -24.314386 -40.714887 -9.140330 -42.241112 115.174935 -27.560637 -42.241112 115.174935 -27.560637
16.787636 -1.871423 15.254328 0.000000 0.000000 0.000000 0.000000 0.000000 0.000000 0.000000 0.000000 0.000000 0.000000 0.000000 0.000000 0.000000 0.000000 0.000000 -100.246277 -5.352006 4.472282 -16.476699 -6.498564 42.821079 76.380619 2.268639 2.883698 76.380619 2.268639 2.883698 74.425443 -30.980066 -40.098755 -167.719362 128.490723 -25.141690 -170.142566 148.033458 -33.510889 -170.142566 148.033458 -33.510889 12.901297 -40.140013 4.730875 -12.302501 -54.113187 -6.301645 67.897599 94.273277 63.992863 67.897599 94.273277 63.992863 -28.183196 2.065691 0.518596 -23.483198 -40.935296 -8.871923 -35.977034 115.124908 -23.319584 -35.977034 115.124908 -23.319584
17.091466 -1.857924 14.280129 0.000000 0.000000 0.000000 0.000000 0.000000 0.000000 0.000000 0.000000 0.000000 0.000000 0.000000 0.000000 0.000000 0.000000 0.000000 -70.071391 -10.855160 15.434692 50.054841 23.213095 47.490315 88.796598 9.980469 10.191221 88.796598 9.980469 10.191221 72.967557 -32.019279 -42.411501 -165.074941 126.971747 -29.422785 -169.494391 145.854976 -33.330672 -169.494391 145.854976 -33.330672 13.425082 -39.012690 4.774857 -11.144111 -54.056905 -5.698470 74.467474 100.179678 64.885173 74.467474 100.179678 64.885173 -27.295638 3.483650 0.846107 -22.188881 -41.134606 -8.416279 -31.446684 115.828404 -20.019706 -31.446684 115.828404 -20.019706
17.253211 -1.850386 13.562169 0.000000 0.000000 0.000000 0.000000 0.000000 0.000000 0.000000 0.000000 0.000000 0.000000 0.000000 0.000000 0.000000 0.000000 0.000000 -48.901080 -7.199479 15.754863 71.570946 20.100401 27.626368 93.153604 5.599692 5.300102 93.153604 5.599692 5.300102 74.377357 -32.750298 -42.341283 -158.265067 121.047342 -37.520350 -163.251820 128.865873 -34.205694 -163.251820 128.865873 -34.205694 11.657915 -40.084481 4.265632 -13.627803 -50.778395 -6.491520 70.442504 95.870543 65.003331 70.442504 95.870543 65.003331 -26.911354 4.770005 1.141897 -19.523494 -43.248993 -7.803238 -28.766196 115.595772 -18.348483 -28.766196 115.595772 -18.348483
17.594833 -1.837958 12.829135 0.000000 0.000000 0.000000 0.000000 0.000000 0.000000 0.000000 0.000000 0.000000 0.000000 0.000000 0.000000 0.000000 0.000000 0.000000 -48.048161 -10.085816 22.396523 76.986981 23.056071 28.769759 96.175493 7.550161 6.779191 96.175493 7.550161 6.779191 73.551548 -33.032538 -43.278362 -153.895570 114.908335 -39.927708 -161.292774 123.478695 -34.071914 -161.292774 123.478695 -34.071914 11.210165 -38.466520 3.922083 -13.076954 -52.024435 -6.402685 81.476098 107.971582 64.100664 81.476098 107.971582 64.100664 -26.251637 5.480879 1.278967 -17.303839 -45.573268 -7.314922 -24.396976 111.591257 -16.718434 -24.396976 111.591257 -16.718434
17.939614 -1.725872 12.369932 0.000000 0.000000 0.000000 0.000000 0.000000 0.000000 0.000000 0.000000 0.000000 0.000000 0.000000 0.000000 0.000000 0.000000 0.000000 -59.908672 -13.541402 23.281885 68.874634 29.839555 42.471844 90.119777 15.331053 15.299417 90.119777 15.331053 15.299417 69.600810 -29.463301 -41.444167 -153.409224 111.658064 -38.385146 -162.985673 128.952665 -34.787941 -162.985673 128.952665 -34.787941 11.705763 -36.125332 3.829501 -12.223527 -52.037266 -5.984023 82.456992 110.620099 62.478677 82.456992 110.620099 62.478677 -25.531528 5.376907 1.219074 -15.519967 -49.988172 -7.269926 -23.246009 106.045720 -17.606821 -23.246009 106.045720 -17.606821
18.156961 -1.647200 12.134392 0.000000 0.000000 0.000000 0.000000 0.000000 0.000000 0.000000 0.000000 0.000000 0.000000 0.000000 0.000000 0.000000 0.000000 0.000000 -63.417931 -13.943042 22.390479 69.157356 33.102510 46.645612 84.937365 14.368825 15.682192 84.937365 14.368825 15.682192 70.123299 -29.487747 -41.109813 -152.245457 109.236807 -38.363056 -162.390352 127.799681 -35.091467 -162.390352 127.799681 -35.091467 11.832249 -35.500065 3.799665 -12.242911 -51.782836 -5.959907 81.881050 110.494667 62.082620 81.881050 110.494667 62.082620 -25.037469 5.310245 1.179878 -14.965377 -51.515357 -7.252549 -24.386529 105.772618 -18.571921 -24.386529 105.772618 -18.571921
18.349219 -1.642791 11.752213 0.000000 0.000000 0.000000 0.000000 0.000000 0.000000 0.000000 0.000000 0.000000 0.000000 0.000000 0.000000 0.000000 0.000000 0.000000 -70.505145 -12.549473 17.684970 66.818109 36.818004 53.550111 87.960034 14.745057 15.273414 87.960034 14.745057 15.273414 70.207329 -28.289812 -39.448942 -152.610531 110.393689 -38.637571 -161.747944 127.437405 -36.039170 -161.747944 127.437405 -36.039170 11.671642 -35.605081 3.759590 -10.378941 -52.020824 -5.075057 85.374987 116.545306 59.390088 85.374987 116.545306 59.390088 -20.887556 1.630982 0.300649 -15.367689 -53.182992 -7.727430 -29.174299 106.234040 -22.098622 -29.174299 106.234040 -22.098622
18.510098 -1.643157 11.481013 0.000000 0.000000 0.000000 0.000000 0.000000 0.000000 0.000000 0.000000 0.000000 0.000000 0.000000 0.000000 0.000000 0.000000 0.000000 -73.781096 -13.024398 17.295405 65.839840 37.008847 54.672877 89.373848 14.296892 14.452343 89.373848 14.296892 14.452343 70.891422 -27.513222 -37.957707 -152.083443 112.097464 -40.525711 -160.761999 125.861807 -36.694234 -160.761999 125.861807 -36.694234 11.694565 -35.641522 3.771133 -8.695516 -52.218715 -4.267875 83.628844 116.702678 57.743146 83.628844 116.702678 57.743146 -19.392323 0.493178 0.084267 -15.585100 -53.935226 -7.966312 -30.423263 106.947578 -22.773735 -30.423263 106.947578 -22.773735
